<?xml version="1.0" encoding="UTF-8"?> <svg xmlns="http://www.w3.org/2000/svg" width="36.48" height="32.901" viewBox="0 0 36.48 32.901"><g id="Group_327" data-name="Group 327" transform="translate(2256 5546.491)"><path id="Path_502" data-name="Path 502" d="M.148,10.73A.148.148,0,0,0,0,10.878V39.786a.148.148,0,0,0,.148.148h3.6a.145.145,0,0,0,.145-.145V10.878a.145.145,0,0,0-.141-.148H.148Z" transform="translate(-2256 -5553.524)" fill="#fd6a23" fill-rule="evenodd"></path><path id="Path_503" data-name="Path 503" d="M31.428,32.19a.148.148,0,0,0-.148.145V53.853a.148.148,0,0,0,.148.148h3.6a.145.145,0,0,0,.145-.145V32.335a.145.145,0,0,0-.145-.145Z" transform="translate(-2276.504 -5567.591)" fill="#057dc1" fill-rule="evenodd"></path><path id="Path_504" data-name="Path 504" d="M94.725,21.46a.145.145,0,0,0-.145.145V46.819a.145.145,0,0,0,.141.148h3.607a.148.148,0,0,0,.148-.148V21.6a.145.145,0,0,0-.145-.145H94.725Z" transform="translate(-2317.996 -5560.558)" fill="#fd1415" fill-rule="evenodd"></path><path id="Path_505" data-name="Path 505" d="M63.085,0a.145.145,0,0,0-.145.145V32.753a.145.145,0,0,0,.141.148h3.61a.145.145,0,0,0,.145-.145V.148A.145.145,0,0,0,66.7,0h-3.61Z" transform="translate(-2297.256 -5546.491)" fill="#4a7922" fill-rule="evenodd"></path></g></svg> 